<?xml version="1.0" ?>
<svg viewBox="0.0000019073486328125 -44.92499542236328 61.04999542236328 89.84999084472656" stroke-linejoin="round" stroke-linecap="round" fill="black" xmlns="http://www.w3.org/2000/svg"><g><g><g><g><path style="fill:none;stroke:#000000;stroke-opacity:1" d="M 47.650001525878906 4.625 l 10 -10 l -29.85 -29.85 l -7.5 7.5 l 22.35 22.35 l -20 0 l -15 15 l 25.6 25.6 l 7.5 -7.5 l -23.1 -23.1 l 30 0 z"></path><g><path d="M 9.800001525878905 -34.824998474121095 l 17.6 0 l -7.1 7.1 q 10.45 1.15 8.4 -5.9 l 11.2 -11.3 l -22.4 0 l -17.5 17.5 l 1.2 1.2 l 8.6 -8.6 z"></path></g><g><path d="M 51.25000152587891 34.824998474121095 l -17.6 0 l 7.1 -7.1 q -10.45 -1.15 -8.4 5.9 l -11.2 11.3 l 22.4 0 l 17.5 -17.5 l -1.2 -1.2 l -8.6 8.6 z"></path></g></g></g></g></g></svg>