<?xml version="1.0" ?>
<svg viewBox="0 -34.974998474121094 55 72.44999694824219" stroke-linejoin="round" stroke-linecap="round" fill="black" xmlns="http://www.w3.org/2000/svg"><g><g><g><g><path style="fill:none;stroke:#000000;stroke-opacity:1" d="M 55 -34.975 l -10 10 l 0 20 l -35 0 l -10 10 l 29.95 29.95 l 7.5 -7.5 l -22.45 -22.45 l 30 0 l 10 -10 l 0 -30 z"></path><g><path d="M 45.35 -22.874998474121092 q 0.375 -0.363 1.15 -1.15 q 6.261 -1.099 8.5 3.8 l 0 -14.75 l -10 10 l -10 -10 l -7.15 7.15 l 11.3 11.2 l 5.85 -5.9 q 0.04 -0.029 0.35 -0.35 z"></path></g><g><path d="M 32.45 32.474998474121094 l 5 -5 l 10 10 l 7.15 -7.15 l -11.3 -11.2 l -7 7.1 l -1 1 q -3.183 -1.742 -3.85 0 q -0.916 1.293 0 6.25 z"></path></g></g></g></g></g></svg>