<?xml version="1.0" ?>
<svg viewBox="0 -35 110.00000762939453 70" stroke-linejoin="round" stroke-linecap="round" fill="black" xmlns="http://www.w3.org/2000/svg"><g><g><g><g><path style="fill:none;stroke:#000000;stroke-opacity:1" d="M 42.5 -35 l -10 10 l 0 35 l 26.3 0 l 8.7 -8.75 l 0 33.75 l 10 -10 l 0 -36.15 l -11.15 11.15 l -23.85 0 l 0 -35 z"></path><g><path d="M 0 -7.5 l 1.2 1.2 l 8.7 -8.7 l 15.05 0 l 7.6 -7.6 l -0.05 5.05 q 4.6 -6.3 10 -4 l 0 -13.45 l -9.95 10 l -15.05 0 l -17.5 17.5 z"></path></g><g><path d="M 110 7.5 l -1.2 -1.2 l -8.7 8.7 l -15.05 0 l -7.6 7.6 l 0.05 -5.05 q -4.6 6.3 -10 4 l 0 13.45 l 9.95 -10 l 15.05 0 l 17.5 -17.5 z"></path></g></g></g></g></g></svg>