<?xml version="1.0" ?>
<svg viewBox="0.000003814697265625 -35.224998474121094 85.55000305175781 70.44999694824219" stroke-linejoin="round" stroke-linecap="round" fill="black" xmlns="http://www.w3.org/2000/svg"><g><g><g><g><path style="fill:none;stroke:#000000;stroke-opacity:1" d="M 59.900001525878906 4.625 l 10 -10 l -29.85 -29.85 l -7.5 7.5 l 22.35 22.35 l -20 0 l -15 15 l 25.6 25.6 l 7.5 -7.5 l -23.1 -23.1 l 30 0 z"></path><g><path d="M 32.550001525878905 -27.724998474121094 l -15.05 0 l -17.5 17.5 l 1.2 1.2 l 8.7 -8.7 l 15.05 0 l 8.75 -8.8 q 6.9 0.2 3.8 -6.15 l -4.95 4.95 z"></path></g><g><path d="M 53.00000152587891 27.724998474121094 l 15.05 0 l 17.5 -17.5 l -1.2 -1.2 l -8.7 8.7 l -15.05 0 l -8.75 8.8 q -6.9 -0.2 -3.8 6.15 l 4.95 -4.95 z"></path></g></g></g></g></g></svg>