<?xml version="1.0" ?>
<svg viewBox="-2.5 -37.5 314.1666564941406 108.42926025390625" stroke-linejoin="round" stroke-linecap="round" stroke-width="5" stroke="black" fill="none" xmlns="http://www.w3.org/2000/svg"><g><g><g><g><path d="M 0 -35 c 0 40 30 70 70 70"></path><path d="M 70 35 c 15 0 3.75 -22.5 -11.25 7.5"></path><path d="M 50 -35 l 20 20"></path><path d="M 28.25 45.75 a -0.75 -0.75 0 0 0 -0.75 -0.75 a -0.75 -0.75 0 0 0 -0.75 0.75 a -0.75 -0.75 0 0 0 0.75 0.75 a -0.75 -0.75 0 0 0 0.75 -0.75"></path></g><g><path d="M 152.0833282470703 -35 h -60 c 0 35 25 35 25 35 a 7.5 7.5 0 0 1 7.5 -7.5 c 20 0 17.5 42.5 17.5 42.5"></path></g><g><path d="M 167.0833282470703 -35 c 0 40 30 70 70 70"></path></g><g><path d="M 252.0833282470703 -35 c 40 0 40 50 0 70 h 50"></path><g><path d="M 302.0833282470703 35 c 15 0 3.75 22.5 -11.25 -7.5"></path></g><path d="M 276.8749942779541 53.100006103515625 c -7.5 7.5 -3.75 17.25 11.25 15"></path></g></g></g></g></svg>