<?xml version="1.0" ?>
<svg viewBox="0 -35 303.1499938964844 129.10293579101562" stroke-linejoin="round" stroke-linecap="round" fill="black" xmlns="http://www.w3.org/2000/svg"><g><g><g><g><path d="M 7.5 -35 l -7.5 7.5 57.5 62.5 7.5 -7.5 -57.5 -62.5 z"></path><path d="M 54.9 25 q -1.655 2.716 2.6 10 l 15 0 l 10 -10 l -20 0 q -7.015 -2.931 -7.6 0 z"></path><path d="M 37.5 -27.5 l 20 20 l 7.5 -7.5 l -20 -20 l -7.5 7.5 z"></path><path d="M 17.5 52.5 l 7.5 7.5 l 7.5 -7.5 l -7.5 -7.5 l -7.5 7.5 z"></path></g><g><path d="M 158.14999694824218 -24.925 l 10 -10 l -65.75 0 l -9.9 9.95 l 30.45 37.55 l 7.25 -7.3 l 24.15 29.65 l 7.45 -7.4 l -25.2 -31.05 l -7.5 7.45 l -23.1 -28.85 l 52.15 0 z"></path></g><g><path d="M 185.64999389648438 -35 l -7.5 7.5 57.5 62.5 7.5 -7.5 -57.5 -62.5 z"></path></g><g><path d="M 260.6499938964844 -35 l -7.5 7.5 l 31.25 31.25 l -31.25 31.25 l 40 0 l 10 -10 l -37.6 0 l 27.5 -27.6 l -32.4 -32.4 z"></path><g><path d="M 288.1499938964844 25 l 15 0 l 0 15 l -10 10 l 0 -15 l -10 0 q 7.753 -3.874 5 -10 z"></path></g><path d="M 265.2944378852844 82.5 q 0.75 5.3 5.4 8.4 q 4.9 3.3 12.95 3.2 l 7.5 -7.5 q -14.9 -0.4 -18.6 -8.55 q -3.75 -8.2 7.45 -16.9 l -1.25 -1.15 q -7.35 5.2 -10.9 11.4 q -3.3 5.85 -2.55 11.1 z"></path></g></g></g></g></svg>