<?xml version="1.0" ?>
<svg viewBox="-0.0000019073486328125 -42.500003814697266 56.349998474121094 77.5" stroke-linejoin="round" stroke-linecap="round" fill="black" xmlns="http://www.w3.org/2000/svg"><g><g><g><g><path style="fill:none;stroke:#000000;stroke-opacity:1" d="M 7.5 -35 l -7.5 7.5 l 31.25 31.25 l -31.25 31.25 l 40 0 l 10 -10 l -37.6 0 l 27.5 -27.6 l -32.4 -32.4 z"></path><g><path d="M 8.649999999999999 -27.5 q 1.328 -4.078 -0.8 -6.7 l 0.8 0.35 q 19.05 9.15 23.7 -6.2 q -7.65 9.4 -17.35 -2.45 l -15 15 q 4.648 1.323 8.65 0 z"></path></g><g><path d="M 29.55 35 l 10.45 0 l 16.35 -16.35 q -8.942 -4.256 -7.9 -14.9 q -8.313 8.782 -0.75 21.25 l -13.35 0 q 4.7 5.2 -4.8 10 z"></path></g></g></g></g></g></svg>