<?xml version="1.0" ?>
<svg viewBox="0.0000013289973139762878 -46.349998474121094 74.36058807373047 91.3499984741211" stroke-linejoin="round" stroke-linecap="round" fill="black" xmlns="http://www.w3.org/2000/svg"><g><g><g><g><path style="fill:none;stroke:#000000;stroke-opacity:1" d="M 23.711612701416016 -35 l -7.5 7.5 l 31.25 31.25 l -31.25 31.25 l 40 0 l 10 -10 l -37.6 0 l 27.5 -27.6 l -32.4 -32.4 z"></path><g><path d="M 0.011612701416012783 -46.35 q -0.35 21.9 9.85 27.5 l 6.3 -6.35 l 2 -2 q 8.054 2.82 4.35 -6.65 l -6.3 6.35 q -10.8 -2.6 -16.2 -18.85 z"></path></g><g><path d="M 63.91161270141602 45 q 16 -9.8 7.5 -27.5 l -7.55 7.5 l -11.1 0 q 3.05 5.25 -1.5 10 l 5 0 l 8.8 -8.85 q 6.15 7.15 -1.15 18.85 z"></path></g></g></g></g></g></svg>