<?xml version="1.0" ?>
<svg viewBox="0.0000019073486328125 -45.000003814697266 80 90.00000762939453" stroke-linejoin="round" stroke-linecap="round" fill="black" xmlns="http://www.w3.org/2000/svg"><g><g><g><g><path style="fill:none;stroke:#000000;stroke-opacity:1" d="M 27.5 -35 l -10 10 l 0 35 l 26.3 0 l 8.7 -8.75 l 0 33.75 l 10 -10 l 0 -36.15 l -11.15 11.15 l -23.85 0 l 0 -35 z"></path><g><path d="M 27.5 -35 l 0 0.1 l -0.05 0 l -9.95 9.9 l 0 5 q 5 -5.75 10 -5 l 0 -7.55 l 12.4 -12.45 l -22.4 0 l -17.5 17.5 l 1.2 1.2 l 8.6 -8.6 l 17.6 0 l 0.1 -0.1 z"></path></g><g><path d="M 52.5 35 l 0 -0.1 l 0.05 0 l 9.95 -9.9 l 0 -5 q -5 5.75 -10 5 l 0 7.55 l -12.4 12.45 l 22.4 0 l 17.5 -17.5 l -1.2 -1.2 l -8.6 8.6 l -17.6 0 l -0.1 0.1 z"></path></g></g></g></g></g></svg>