<?xml version="1.0" ?>
<svg viewBox="0 -34.974998474121094 62.44999694824219 69.94999694824219" stroke-linejoin="round" stroke-linecap="round" fill="black" xmlns="http://www.w3.org/2000/svg"><g><g><g><g><path style="fill:none;stroke:#000000;stroke-opacity:1" d="M 55 -34.975 l -10 10 l 0 20 l -35 0 l -10 10 l 29.95 29.95 l 7.5 -7.5 l -22.45 -22.45 l 30 0 l 10 -10 l 0 -30 z"></path><g><path d="M 55 -19.974998474121094 l 0 -15 l -15 0 l -17.5 17.5 l 1.2 1.2 l 8.7 -8.7 l 12.6 0 l 0 10 q 3.85 -7.75 10 -5 z"></path></g><g><path d="M 27.35 24.974998474121094 q -1.65 2.7 2.6 10 l 15 0 l 17.5 -17.5 l -1.2 -1.2 l -8.7 8.7 l -17.6 0 q -7 -2.95 -7.6 0 z"></path></g></g></g></g></g></svg>