<?xml version="1.0" ?>
<svg viewBox="0 -52.599998474121094 65 105.19999694824219" stroke-linejoin="round" stroke-linecap="round" fill="black" xmlns="http://www.w3.org/2000/svg"><g><g><g><g><path style="fill:none;stroke:#000000;stroke-opacity:1" d="M 20 -35 l -10 10 l 0 35 l 26.3 0 l 8.7 -8.75 l 0 33.75 l 10 -10 l 0 -36.15 l -11.15 11.15 l -23.85 0 l 0 -35 z"></path><g><path d="M 20 -32.6 l 7.5 -7.55 q -16.8 0.55 -27.5 -12.45 q 4.6 18.35 18.85 18.8 l -8.85 8.8 l 0 5 q 4.75 -4.55 10 -1.5 l 0 -11.1 z"></path></g><g><path d="M 45 32.6 l -7.5 7.55 q 16.8 -0.55 27.5 12.45 q -4.6 -18.35 -18.85 -18.8 l 8.85 -8.8 l 0 -5 q -4.75 4.55 -10 1.5 l 0 11.1 z"></path></g></g></g></g></g></svg>