<?xml version="1.0" ?>
<svg viewBox="0 -41.349998474121094 37.5 83.85000610351562" stroke-linejoin="round" stroke-linecap="round" fill="black" xmlns="http://www.w3.org/2000/svg"><g><g><g><g><path style="fill:none;stroke:#000000;stroke-opacity:1" d="M 10 -35 l -10 10 l 0 30 l 30 30 l 7.5 -7.5 l -27.5 -27.5 l 0 -35 z"></path><g><path d="M 10 -32.7 l 0 13.35 q -5.2 -4.7 -10 4.8 l 0 -10.45 l 16.35 -16.35 q 11.35 3.25 12.3 12.55 q 0.1 0.8 0.1 1.7 q 0 0.6 -0.05 1.2 q -3.4 -6.7 -18.7 -6.8 z"></path></g><g><path d="M 37.5 27.5 q -7.6 -3.25 -8.6 0 q -0.313 1.95 1.3 6.2 l -1.3 0.15 q -20.55 3.2 -16.1 -6.3 q -12.35 14.35 9.75 14.95 l 14.95 -15 z"></path></g></g></g></g></g></svg>