<?xml version="1.0" ?>
<svg viewBox="0 -42.500003814697266 56.349998474121094 77.5" stroke-linejoin="round" stroke-linecap="round" fill="black" xmlns="http://www.w3.org/2000/svg"><g><g><g><g><path style="fill:none;stroke:#000000;stroke-opacity:1" d="M 7.5 -35 l -7.5 7.5 l 31.25 31.25 l -31.25 31.25 l 40 0 l 10 -10 l -37.6 0 l 27.5 -27.6 l -32.4 -32.4 z"></path><g><path d="M 0 -27.5 q 7.6 3.25 8.6 0 q 0.313 -1.95 -1.3 -6.2 l 1.3 -0.15 q 20.55 -3.2 16.1 6.3 q 12.35 -14.35 -9.75 -14.95 l -14.95 15 z"></path></g><g><path d="M 47.7 25 l -13.35 0 q 4.7 5.2 -4.8 10 l 10.45 0 l 16.35 -16.35 q -3.25 -11.35 -12.55 -12.3 q -0.8 -0.1 -1.7 -0.1 q -0.6 0 -1.2 0.05 q 6.7 3.4 6.8 18.7 z"></path></g></g></g></g></g></svg>