<?xml version="1.0" ?>
<svg viewBox="-0.0000019073486328125 -44.298980712890625 70.19999694824219 95.51058959960938" stroke-linejoin="round" stroke-linecap="round" fill="black" xmlns="http://www.w3.org/2000/svg"><g><g><g><g><path style="fill:none;stroke:#000000;stroke-opacity:1" d="M 18.849998474121094 -35 l -7.5 7.5 l 31.25 31.25 l -31.25 31.25 l 40 0 l 10 -10 l -37.6 0 l 27.5 -27.6 l -32.4 -32.4 z"></path><g><path d="M 19.999998474121092 -33.8 l 7.5 -7.55 q -17.7 -8.5 -27.5 7.5 q 11.7 -7.3 18.85 -1.15 l -3.7 3.65 q 1.81 1.308 4.55 2.1 q 1.8 0.5 0.3 -4.55 z"></path></g><g><path d="M 47.699998474121095 25 q 2.585 3.848 -6.35 10 l 7.65 0 l -6.3 6.35 q 5.6 10.2 27.5 9.85 q -16.25 -5.4 -18.85 -16.2 l 10 -10 l -13.65 0 z"></path></g></g></g></g></g></svg>