<?xml version="1.0" ?>
<svg viewBox="0 -48.650001525878906 81.39999389648438 96" stroke-linejoin="round" stroke-linecap="round" fill="black" xmlns="http://www.w3.org/2000/svg"><g><g><g><g><path style="fill:none;stroke:#000000;stroke-opacity:1" d="M 23.799999237060547 -35 l -7.5 7.5 l 31.25 31.25 l -31.25 31.25 l 40 0 l 10 -10 l -37.6 0 l 27.5 -27.6 l -32.4 -32.4 z"></path><g><path d="M 23.799999237060547 -29 q 0.8 -1 0 -6 l -6.3 6.3 l 0 -19.95 l -17.5 17.5 l 1.2 1.2 l 6.3 -6.3 l 0 20.05 l 10 -10.1 q 4.2 0.65 6.3 -2.7 z"></path></g><g><path d="M 51.29999923706055 35 l 5 0 l 7.6 -7.65 l 0 20 l 10 -9.9 l 0 -0.1 l 7.5 -7.5 l -1.2 -1.2 l -6.3 6.3 l 0 -19.95 l -10 10 l -12.6 0 q 3.5 4 0 10 z"></path></g></g></g></g></g></svg>